# xmcd
#
# Track frame offsets: 
#        150
#        20499
#        38898
#        58097
#        75846
#        93495
#        112119
#        139280
#        155492
#        183353
#        214127
#        229414
#        245438
#        266962
#        288286
#        306372
#        326621
#
# Disc length: 4762 seconds
#
# Revision: 0
# Processed by: cddbd v1.4PL0 Copyright (c) Steve Scherf et al.
# Submitted via: ExactAudioCopy v0.95a3
#
DISCID=f9129811
DTITLE=Chris Rea - The Very Best Of
DYEAR=2003
DGENRE=Blues
TTITLE0=The Road To Hell (Part 2)
TTITLE1=Fool (If You Think It's Over)
TTITLE2=Let's Dance
TTITLE3=You Can Go Your Own Way
TTITLE4=Julia
TTITLE5=Stainsby Girls
TTITLE6=Tell Me There's A Heaven
TTITLE7=Josephine
TTITLE8=Steel River
TTITLE9=On The Beach
TTITLE10=I Can Hear Your Heartbeat
TTITLE11=All Summer Long
TTITLE12=The Blue Cafe
TTITLE13=Auberge
TTITLE14=Driving Home For Christmas
TTITLE15=Nothing To Fear
TTITLE16=Saudade Part 1 and 2 (Tribute To Ayrton Senna)
EXTD=
EXTT0=
EXTT1=
EXTT2=
EXTT3=
EXTT4=
EXTT5=
EXTT6=
EXTT7=
EXTT8=
EXTT9=
EXTT10=
EXTT11=
EXTT12=
EXTT13=
EXTT14=
EXTT15=
EXTT16=
PLAYORDER=
